<svg xmlns="http://www.w3.org/2000/svg" viewBox="0 0 55 55">
	<style type="text/css">
		.st0{fill:#231F20;}
		.st1{fill:url(#SVGID_1_);}
		.st2{fill:url(#SVGID_2_);}
		.st3{fill:#545454;}
		.st4{opacity:0.7;fill:#FFFFFF;enable-background:new    ;}
		.st5{fill:url(#SVGID_3_);}
		.st6{fill:#333333;}
		.st7{fill:#FFFFFF;}
		.st8{fill:#353535;}
	</style>
	<path class="st0" d="M49.88,48.94l-37.19,5.84c-1,0.18-1.59-0.72-1.67-1.83l0.6-0.09c0.09,0.5,0.59,0.91,0.99,0.91l37.19-5.74
		c0.5-0.09,0.81-0.89,0.72-1.29l0.39-0.08C51.09,47.57,51.07,48.71,49.88,48.94z"/>
	<linearGradient id="SVGID_1_" gradientUnits="userSpaceOnUse" x1="72.713" y1="-72.0213" x2="72.713" y2="-23.3825" gradientTransform="matrix(0.9881 -0.1536 0.1536 0.9881 -37.0646 85.503)">
		<stop  offset="0" style="stop-color:#E0E0E0"/>
		<stop  offset="1" style="stop-color:#AAABAE"/>
	</linearGradient>
	<path class="st1" d="M50.91,46.75c0.09,0.7-0.42,1.39-1.12,1.58L12.6,54.08c-0.7,0.09-1.39-0.42-1.58-1.12L4,7.64
		c-0.09-0.8,0.42-1.49,1.12-1.58l37.19-5.74c0.7-0.09,1.39,0.42,1.58,1.12L50.91,46.75z"/>
	<linearGradient id="SVGID_2_" gradientUnits="userSpaceOnUse" x1="87.801" y1="-62.2176" x2="87.801" y2="-23.4123" gradientTransform="matrix(0.9881 -0.1536 0.1536 0.9881 -37.0646 85.503)">
		<stop  offset="0" style="stop-color:#F77F2A"/>
		<stop  offset="1" style="stop-color:#CC641B"/>
	</linearGradient>
	<path class="st2" d="M35.15,11.31l5.92,38.39l8.62-1.37c0.7-0.09,1.21-0.78,1.12-1.58L45.17,9.76L35.15,11.31z"/>
	<path class="st3" d="M12.4,54.17c-0.7-0.01-1.29-0.52-1.38-1.22L4,7.64c-0.09-0.8,0.42-1.49,1.12-1.58l37.19-5.84
		c0.8-0.09,1.49,0.42,1.58,1.22l7.02,45.31c0.09,0.8-0.42,1.49-1.22,1.58L12.6,54.18C12.6,54.18,12.5,54.17,12.4,54.17z M42.61,0.32
		c-0.1,0-0.1,0-0.2,0L5.22,6.16C4.52,6.25,4.01,6.94,4.1,7.64l7.02,45.31c0.09,0.7,0.78,1.21,1.48,1.12l37.19-5.74
		c0.7-0.09,1.21-0.78,1.12-1.48L43.8,1.44C43.7,0.84,43.21,0.33,42.61,0.32z"/>
	<path id="highlight" class="st4" d="M49.7,47.73l-36.99,5.74c-0.8,0.09-1.49-0.42-1.68-1.23l0,0c0.09,0.7,0.88,1.11,1.58,1.02
		l37.09-5.74c0.7-0.09,1.21-0.78,1.02-1.48l0,0C50.91,46.85,50.5,47.65,49.7,47.73z"/>
	<g>
		<linearGradient id="SVGID_3_" gradientUnits="userSpaceOnUse" x1="52.5873" y1="-67.1081" x2="92.911" y2="-67.1081" gradientTransform="matrix(0.9881 -0.1536 0.1536 0.9881 -37.0646 85.503)">
			<stop  offset="0" style="stop-color:#333333"/>
			<stop  offset="1" style="stop-color:#222222"/>
		</linearGradient>
		<path class="st5" d="M5.37,15.96L4,7.64c-0.09-0.8,0.42-1.49,1.12-1.58l37.19-5.74c0.7-0.09,1.39,0.42,1.58,1.12l1.27,8.32"/>
		<rect x="28.13" y="12.62" transform="matrix(0.9881 -0.1536 0.1536 0.9881 -4.5844 4.7101)" class="st6" width="0.1" height="38.8"/>
		<rect x="17.57" y="14.25" transform="matrix(0.9881 -0.1536 0.1536 0.9881 -4.3538 3.0604)" class="st6" width="0.1" height="30.9"/>
		<rect x="38.05" y="11.06" transform="matrix(0.9881 -0.1536 0.1536 0.9881 -4.2282 6.2162)" class="st6" width="0.1" height="38.8"/>
		<rect x="6.31" y="20.48" transform="matrix(0.9881 -0.1536 0.1536 0.9881 -2.8402 4.3086)" class="st6" width="40.3" height="0.1"/>
		<rect x="8.67" y="35.51" transform="matrix(0.9881 -0.1535 0.1535 0.9881 -5.1184 4.8473)" class="st6" width="40.3" height="0.1"/>
		<rect x="7.5" y="27.89" transform="matrix(0.9881 -0.1535 0.1535 0.9881 -3.9623 4.5762)" class="st6" width="40.3" height="0.1"/>
		<rect x="9.87" y="43.33" transform="matrix(0.9881 -0.1535 0.1535 0.9881 -6.3051 5.1234)" class="st6" width="40.3" height="0.1"/>
	</g>
	<g id="white-numbers">
		<path class="st7" d="M15.38,7.45l-0.02,0l-0.83,0.62l-0.22-0.51l1.04-0.78l0.6-0.09l0.78,5.17l-0.68,0.1L15.38,7.45z"/>
		<path class="st7" d="M18.42,11.18c-0.04-0.29,0.12-0.53,0.4-0.57c0.28-0.04,0.5,0.14,0.55,0.43c0.04,0.29-0.11,0.53-0.4,0.57
			C18.68,11.66,18.46,11.47,18.42,11.18z"/>
		<path class="st7" d="M22.11,6.26c-0.14,0.01-0.33,0.05-0.52,0.11c-1.07,0.35-1.53,1.24-1.52,2.11l0.02,0
			c0.2-0.36,0.59-0.7,1.16-0.79c0.91-0.14,1.66,0.42,1.81,1.43c0.14,0.95-0.37,1.92-1.44,2.08c-1.11,0.17-1.96-0.58-2.16-1.93
			c-0.15-1.02,0.09-1.88,0.52-2.46c0.37-0.49,0.9-0.84,1.54-1.01c0.2-0.06,0.38-0.1,0.5-0.12L22.11,6.26z M22.37,9.28
			c-0.11-0.74-0.6-1.12-1.24-1.02c-0.42,0.06-0.77,0.39-0.91,0.79c-0.04,0.09-0.05,0.19-0.03,0.32c0.14,0.85,0.63,1.42,1.36,1.31
			C22.15,10.58,22.48,10.02,22.37,9.28z"/>
		<path class="st7" d="M24.59,6.05l-0.02,0l-0.83,0.62l-0.22-0.51l1.04-0.78l0.6-0.09l0.78,5.17l-0.68,0.1L24.59,6.05z"/>
		<path class="st7" d="M27.38,8.91c-0.1-0.65,0.22-1.17,0.82-1.54l-0.01-0.02c-0.61-0.18-0.93-0.59-0.99-1.04
			c-0.12-0.82,0.48-1.48,1.39-1.62c1-0.15,1.6,0.4,1.7,1.04c0.07,0.44-0.08,0.94-0.67,1.34l0,0.02c0.68,0.16,1.15,0.55,1.24,1.18
			c0.14,0.9-0.54,1.62-1.53,1.77C28.24,10.21,27.49,9.66,27.38,8.91z M30.15,8.45c-0.1-0.63-0.58-0.86-1.31-0.96
			C28.27,7.76,28,8.21,28.08,8.7c0.06,0.53,0.52,0.93,1.18,0.83C29.89,9.44,30.23,8.99,30.15,8.45z M27.84,6.16
			c0.08,0.52,0.51,0.74,1.13,0.81c0.42-0.22,0.72-0.59,0.64-1.06c-0.06-0.41-0.37-0.81-1-0.71C28.03,5.29,27.77,5.72,27.84,6.16z"/>
		<path class="st7" d="M34.56,6.46c0.27,1.76-0.24,2.83-1.38,3c-1.01,0.15-1.84-0.69-2.11-2.4c-0.26-1.73,0.34-2.8,1.39-2.96
			C33.54,3.94,34.31,4.82,34.56,6.46z M31.76,6.97c0.2,1.34,0.73,2.04,1.37,1.95c0.72-0.11,0.93-0.99,0.73-2.31
			c-0.19-1.27-0.64-2.06-1.37-1.95C31.88,4.75,31.55,5.56,31.76,6.97z"/>
		<path class="st7" d="M35.45,8.21c0.22,0.1,0.71,0.23,1.19,0.15c0.9-0.14,1.09-0.75,1.02-1.18c-0.12-0.72-0.82-0.93-1.49-0.83
			l-0.39,0.06L35.7,5.88l0.39-0.06c0.51-0.08,1.11-0.44,1.02-1.05c-0.06-0.41-0.38-0.74-1.02-0.64c-0.41,0.06-0.78,0.31-0.98,0.5
			l-0.26-0.48c0.24-0.24,0.73-0.52,1.29-0.6c1.02-0.15,1.57,0.38,1.66,1.01c0.08,0.53-0.17,1.03-0.77,1.36l0,0.02
			c0.66,0.03,1.24,0.43,1.35,1.15c0.13,0.83-0.41,1.65-1.65,1.84c-0.58,0.09-1.12-0.02-1.4-0.15L35.45,8.21z"/>
		<path class="st7" d="M41.45,8.12l-0.21-1.41l-2.4,0.36l-0.07-0.46l1.81-3.65l0.76-0.11l0.49,3.21l0.72-0.11l0.08,0.55L41.9,6.61
			l0.21,1.41L41.45,8.12z M41.15,6.16l-0.26-1.73c-0.04-0.27-0.07-0.54-0.1-0.81l-0.02,0c-0.11,0.33-0.21,0.57-0.31,0.83l-1,1.95
			l0,0.02L41.15,6.16z"/>
	</g>
	<g id="black_numbers">
		<g>
			<path class="st8" d="M19.95,48.97c-0.08-0.53-0.02-0.98,0.18-1.34c0.18-0.32,0.43-0.51,0.74-0.55c0.32-0.05,0.61,0.05,0.88,0.31
				c0.3,0.28,0.49,0.7,0.57,1.24c0.08,0.55,0.02,1-0.18,1.36c-0.18,0.32-0.43,0.51-0.74,0.55c-0.32,0.05-0.61-0.06-0.88-0.31
				C20.23,49.95,20.04,49.53,19.95,48.97z M20.45,48.9c0.06,0.37,0.17,0.67,0.33,0.9c0.17,0.22,0.35,0.32,0.55,0.29
				c0.2-0.03,0.34-0.18,0.44-0.44c0.09-0.26,0.11-0.57,0.06-0.94c-0.06-0.37-0.17-0.66-0.33-0.88c-0.17-0.22-0.35-0.32-0.55-0.29
				c-0.2,0.03-0.34,0.18-0.44,0.44C20.42,48.23,20.4,48.54,20.45,48.9z"/>
		</g>
		<g>
			<path class="st8" d="M35.45,46.92l0.46,0.1l-0.43,1.33l-0.35-0.09L35.45,46.92z"/>
		</g>
		<g>
			<path class="st8" d="M14.03,40.62l-0.58,0.09l0.21-0.52l0.81-0.12l0.51,3.35l-0.51,0.08L14.03,40.62z"/>
		</g>
		<g>
			<path class="st8" d="M24.04,41.57l1.25-0.19l0.07,0.48l-2.25,0.34l0.95-1.59c0.09-0.16,0.17-0.29,0.23-0.41
				c0.06-0.12,0.11-0.21,0.14-0.29c0.06-0.15,0.08-0.28,0.07-0.39c-0.02-0.16-0.1-0.28-0.22-0.37c-0.13-0.09-0.27-0.12-0.43-0.1
				c-0.34,0.05-0.5,0.28-0.49,0.69l-0.5,0.08c-0.03-0.72,0.28-1.13,0.91-1.22c0.31-0.05,0.58,0.01,0.81,0.17
				c0.24,0.16,0.38,0.39,0.42,0.67c0.03,0.18,0.01,0.37-0.06,0.56c-0.04,0.1-0.09,0.22-0.17,0.36c-0.08,0.14-0.17,0.31-0.29,0.5
				L24.04,41.57z"/>
		</g>
		<g>
			<path class="st8" d="M34.03,38.91l-0.07-0.43c0.21-0.03,0.36-0.08,0.42-0.14c0.12-0.1,0.16-0.25,0.14-0.43
				c-0.02-0.14-0.09-0.25-0.2-0.33c-0.11-0.08-0.24-0.1-0.39-0.08c-0.14,0.02-0.24,0.07-0.31,0.15c-0.06,0.08-0.1,0.21-0.11,0.38
				l-0.5,0.08c0-0.32,0.08-0.57,0.22-0.74c0.14-0.17,0.35-0.28,0.65-0.32c0.29-0.04,0.55,0.01,0.76,0.15
				c0.21,0.14,0.34,0.35,0.38,0.63c0.05,0.31-0.04,0.56-0.26,0.77c0.3,0.12,0.48,0.37,0.54,0.73c0.05,0.3-0.02,0.56-0.19,0.78
				c-0.17,0.22-0.42,0.36-0.74,0.4c-0.4,0.06-0.73-0.04-0.97-0.31c-0.1-0.11-0.18-0.28-0.23-0.49l0.49-0.07
				c0.05,0.16,0.13,0.27,0.25,0.34c0.11,0.07,0.25,0.09,0.41,0.07c0.16-0.02,0.29-0.1,0.38-0.22c0.09-0.13,0.12-0.28,0.1-0.45
				c-0.03-0.23-0.14-0.38-0.31-0.45C34.38,38.89,34.23,38.88,34.03,38.91z"/>
		</g>
		<g>
			<path class="st8" d="M23.73,31.16l-1.03,0.16l-0.08,0.58c0.02-0.01,0.05-0.01,0.07-0.02c0.02-0.01,0.04-0.01,0.06-0.01
				c0.33-0.05,0.61,0.02,0.85,0.21c0.24,0.19,0.39,0.45,0.44,0.79c0.05,0.35-0.02,0.66-0.22,0.93c-0.2,0.26-0.48,0.42-0.85,0.48
				c-0.45,0.07-0.83-0.09-1.15-0.47l0.33-0.38c0.13,0.16,0.26,0.27,0.38,0.33c0.12,0.06,0.25,0.07,0.41,0.05
				c0.2-0.03,0.36-0.13,0.48-0.29c0.12-0.17,0.16-0.35,0.13-0.56c-0.03-0.21-0.13-0.38-0.28-0.5c-0.16-0.12-0.34-0.16-0.54-0.13
				c-0.23,0.03-0.41,0.16-0.54,0.39l-0.17,0.03l0.26-1.84l1.39-0.21L23.73,31.16z"/>
		</g>
		<g>
			<path class="st8" d="M14.14,34.6l0.36-0.05l0.07,0.46l-0.36,0.05l0.07,0.48l-0.51,0.08l-0.07-0.48l-1.65,0.25l1.68-3.45
				L14.14,34.6z M13.64,34.68l-0.17-1.12l-0.6,1.24L13.64,34.68z"/>
		</g>
		<g>
			<path class="st8" d="M33.17,29.09l0.41,0.22l-0.64,1.21c0.04-0.01,0.08-0.02,0.11-0.03c0.03-0.01,0.05-0.01,0.07-0.01
				c0.27-0.04,0.52,0.03,0.75,0.21c0.23,0.18,0.36,0.41,0.41,0.7c0.05,0.31-0.02,0.59-0.21,0.84c-0.19,0.25-0.43,0.4-0.74,0.45
				c-0.3,0.05-0.59-0.02-0.85-0.2c-0.26-0.18-0.41-0.42-0.45-0.72c-0.04-0.27,0.03-0.56,0.2-0.89L33.17,29.09z M33.8,31.49
				c-0.03-0.18-0.11-0.32-0.25-0.42c-0.14-0.11-0.3-0.14-0.48-0.12c-0.18,0.03-0.32,0.11-0.42,0.25c-0.1,0.14-0.14,0.3-0.12,0.47
				c0.03,0.18,0.11,0.32,0.25,0.42c0.14,0.11,0.3,0.14,0.48,0.12c0.17-0.03,0.31-0.11,0.42-0.25C33.79,31.82,33.83,31.66,33.8,31.49z
				"/>
		</g>
		<g>
			<path class="st8" d="M21.19,25.17c-0.27-0.14-0.43-0.35-0.48-0.65c-0.04-0.27,0.02-0.51,0.18-0.73c0.16-0.21,0.38-0.34,0.66-0.38
				c0.28-0.04,0.52,0.01,0.74,0.17c0.21,0.15,0.34,0.37,0.38,0.64c0.04,0.29-0.04,0.54-0.26,0.76c0.15,0.05,0.27,0.14,0.37,0.27
				c0.1,0.13,0.16,0.28,0.19,0.45c0.04,0.3-0.02,0.55-0.18,0.77c-0.17,0.22-0.4,0.35-0.7,0.4c-0.31,0.05-0.58-0.01-0.81-0.17
				c-0.23-0.16-0.37-0.39-0.41-0.68C20.8,25.66,20.91,25.37,21.19,25.17z M21.35,25.94c0.02,0.16,0.1,0.28,0.22,0.38
				c0.13,0.09,0.27,0.13,0.42,0.11c0.15-0.02,0.28-0.1,0.37-0.22c0.09-0.13,0.13-0.27,0.1-0.42c-0.02-0.15-0.1-0.28-0.22-0.37
				c-0.12-0.09-0.26-0.13-0.42-0.1c-0.15,0.02-0.28,0.1-0.37,0.22C21.36,25.65,21.32,25.79,21.35,25.94z M21.18,24.44
				c0.02,0.14,0.09,0.26,0.2,0.34c0.11,0.08,0.24,0.11,0.38,0.09c0.14-0.02,0.25-0.09,0.33-0.2c0.08-0.11,0.11-0.24,0.09-0.38
				c-0.02-0.14-0.09-0.25-0.2-0.33c-0.11-0.08-0.24-0.11-0.38-0.09c-0.14,0.02-0.25,0.09-0.33,0.2
				C21.2,24.19,21.16,24.31,21.18,24.44z"/>
		</g>
		<g>
			<path class="st8" d="M12.39,25.34l-1.66,0.25l-0.07-0.47l2.5-0.38l-1.59,3.79l-0.44-0.19L12.39,25.34z"/>
		</g>
		<g>
			<path class="st8" d="M31.81,25.43l-0.41-0.22L32.04,24c-0.04,0.01-0.08,0.02-0.11,0.03c-0.03,0.01-0.06,0.01-0.07,0.02
				c-0.27,0.04-0.52-0.03-0.75-0.2c-0.23-0.18-0.36-0.41-0.41-0.7c-0.05-0.31,0.02-0.59,0.21-0.84c0.19-0.25,0.43-0.4,0.74-0.45
				c0.31-0.05,0.59,0.02,0.85,0.2c0.26,0.18,0.41,0.42,0.45,0.71c0.04,0.26-0.03,0.56-0.2,0.89L31.81,25.43z M31.18,23.03
				c0.03,0.18,0.11,0.32,0.25,0.43c0.14,0.11,0.3,0.14,0.48,0.12c0.17-0.03,0.32-0.11,0.42-0.25c0.11-0.14,0.15-0.3,0.12-0.48
				c-0.03-0.17-0.11-0.31-0.26-0.42c-0.14-0.11-0.3-0.14-0.48-0.12c-0.17,0.03-0.31,0.11-0.42,0.25
				C31.2,22.7,31.16,22.86,31.18,23.03z"/>
		</g>
		<g>
			<path class="st8" d="M18.3,18.27l-0.05-0.31L19,17.84l-0.11-0.73l0.31-0.05l0.11,0.73l0.74-0.11l0.05,0.31l-0.74,0.11l0.11,0.73
				l-0.31,0.05l-0.11-0.73L18.3,18.27z"/>
			<path class="st8" d="M21.4,16.08l0.34,0.09l-0.97,3.68l-0.33-0.09L21.4,16.08z"/>
			<path class="st8" d="M21.92,17.92l1.21-0.18l0.05,0.33l-1.21,0.18L21.92,17.92z"/>
		</g>
		<g>
			<path class="st8" d="M10.67,19.92l-1.12,0.17l-0.19,0.68l-0.42,0.06l0.87-2.97l1.67,2.58l-0.43,0.07L10.67,19.92z M10.46,19.57
				l-0.52-0.83l-0.27,0.95L10.46,19.57z"/>
			<path class="st8" d="M13.14,17.67l0.07,0.47c-0.26-0.16-0.51-0.22-0.75-0.18c-0.27,0.04-0.48,0.17-0.63,0.39
				c-0.16,0.22-0.21,0.47-0.17,0.74c0.04,0.27,0.17,0.49,0.38,0.65c0.21,0.16,0.45,0.22,0.72,0.18c0.14-0.02,0.25-0.06,0.34-0.12
				c0.05-0.03,0.1-0.07,0.15-0.12c0.05-0.05,0.11-0.1,0.16-0.17l0.07,0.47c-0.21,0.16-0.43,0.26-0.68,0.3
				c-0.37,0.06-0.71-0.03-1.01-0.25c-0.3-0.22-0.48-0.52-0.54-0.89c-0.05-0.33,0.01-0.65,0.19-0.94c0.22-0.36,0.55-0.57,0.98-0.64
				C12.67,17.54,12.91,17.57,13.14,17.67z"/>
		</g>
		<g>
			<path class="st8" d="M29.28,15.87c-0.02-0.16,0.02-0.31,0.12-0.45c0.11-0.14,0.25-0.22,0.41-0.25c0.17-0.03,0.33,0.01,0.47,0.12
				c0.14,0.1,0.23,0.24,0.25,0.4c0.03,0.17-0.02,0.32-0.12,0.46c-0.11,0.14-0.25,0.22-0.42,0.25c-0.17,0.03-0.33-0.01-0.47-0.12
				C29.38,16.18,29.3,16.04,29.28,15.87z M29.57,15.83c0.01,0.09,0.06,0.17,0.13,0.22c0.07,0.06,0.16,0.08,0.25,0.06
				c0.09-0.01,0.16-0.06,0.22-0.13c0.05-0.08,0.08-0.16,0.06-0.25c-0.01-0.09-0.06-0.16-0.13-0.22c-0.08-0.06-0.16-0.08-0.25-0.06
				c-0.09,0.01-0.17,0.06-0.22,0.13C29.58,15.66,29.56,15.74,29.57,15.83z M31.19,14.89l0.33,0.12l-1.13,2.81l-0.32-0.13L31.19,14.89
				z M31.07,17.02c-0.02-0.16,0.02-0.31,0.12-0.45c0.11-0.14,0.25-0.22,0.41-0.25c0.17-0.03,0.33,0.01,0.47,0.12
				c0.14,0.1,0.23,0.24,0.25,0.4c0.03,0.17-0.02,0.32-0.12,0.46c-0.1,0.14-0.25,0.22-0.42,0.25c-0.17,0.03-0.33-0.01-0.47-0.11
				C31.18,17.33,31.1,17.19,31.07,17.02z M31.37,16.98c0.01,0.09,0.06,0.17,0.13,0.22c0.08,0.06,0.16,0.08,0.25,0.06
				c0.09-0.01,0.17-0.06,0.22-0.13c0.06-0.07,0.08-0.16,0.06-0.25c-0.01-0.09-0.06-0.17-0.13-0.22c-0.07-0.06-0.16-0.08-0.25-0.06
				c-0.09,0.01-0.16,0.06-0.22,0.13C31.38,16.81,31.36,16.89,31.37,16.98z"/>
		</g>
	</g>
	<g id="orange-buttons">
		<rect x="39.37" y="14.56" transform="matrix(0.9887 -0.1497 0.1497 0.9887 -1.7535 6.2615)" class="st7" width="2.68" height="0.43"/>
		<circle class="st7" cx="40.59" cy="13.99" r="0.36"/>
		<circle class="st7" cx="40.83" cy="15.57" r="0.36"/>
		<rect x="42.86" y="36.99" transform="matrix(0.9887 -0.1497 0.1497 0.9887 -5.0719 7.0369)" class="st7" width="2.68" height="0.43"/>
		<rect x="42.88" y="36.98" transform="matrix(0.1497 0.9887 -0.9887 0.1497 74.3759 -12.0917)" class="st7" width="2.68" height="0.43"/>
		<rect x="40.44" y="21.73" transform="matrix(0.805 0.5933 -0.5933 0.805 21.166 -20.5049)" class="st7" width="2.68" height="0.43"/>
		<rect x="40.46" y="21.75" transform="matrix(-0.5933 0.805 -0.805 -0.5933 84.2665 1.3427)" class="st7" width="2.68" height="0.43"/>
		<rect x="41.73" y="29.4" transform="matrix(0.9887 -0.1497 0.1497 0.9887 -3.9481 6.7824)" class="st7" width="2.68" height="0.43"/>
		<rect x="44.11" y="44.07" transform="matrix(0.9887 -0.1497 0.1497 0.9887 -6.1187 7.305)" class="st7" width="2.68" height="0.43"/>
		<rect x="44.26" y="45.06" transform="matrix(0.9887 -0.1497 0.1497 0.9887 -6.265 7.3386)" class="st7" width="2.68" height="0.43"/>
	</g>
</svg>
