<svg xmlns="http://www.w3.org/2000/svg" viewBox="0 0 55 55">
	<style type="text/css">
		.st0{fill:#231F20;}
		.st1{fill:url(#SVGID_1_);}
		.st2{fill:url(#SVGID_2_);}
		.st3{fill:#545454;}
		.st4{opacity:0.7;fill:#FFFFFF;enable-background:new    ;}
		.st5{fill:url(#SVGID_3_);}
		.st6{fill:#333333;}
		.st7{fill:#FFFFFF;}
		.st8{opacity:0.7;}
	</style>
	<path class="st0" d="M50.2,48.6L13.1,55c-1,0.2-1.6-0.7-1.7-1.8l0.6-0.1c0.1,0.5,0.6,0.9,1,0.9l37.1-6.3c0.5-0.1,0.8-0.9,0.7-1.3
		l0.5-0.1C51.5,47.2,51.2,48.5,50.2,48.6z"/>
	<linearGradient id="SVGID_1_" gradientUnits="userSpaceOnUse" x1="68.7014" y1="79.3017" x2="68.7014" y2="30.7097" gradientTransform="matrix(0.9857 -0.1685 -0.1685 -0.9857 -30.9651 92.9921)">
		<stop  offset="0" style="stop-color:#E0E0E0"/>
		<stop  offset="1" style="stop-color:#AAABAE"/>
	</linearGradient>
	<path class="st1" d="M51.2,46.4c0.1,0.7-0.4,1.4-1.1,1.6L13,54.3c-0.7,0.1-1.4-0.4-1.6-1.1L3.7,8C3.6,7.2,4.1,6.5,4.8,6.4l37.1-6.3
		c0.7-0.1,1.4,0.4,1.6,1.1L51.2,46.4z"/>
	<linearGradient id="SVGID_2_" gradientUnits="userSpaceOnUse" x1="83.8014" y1="69.515" x2="83.8014" y2="30.7097" gradientTransform="matrix(0.9857 -0.1685 -0.1685 -0.9857 -30.9651 92.9921)">
		<stop  offset="0" style="stop-color:#F77F2A"/>
		<stop  offset="1" style="stop-color:#CC641B"/>
	</linearGradient>
	<path class="st2" d="M34.9,11.2l6.5,38.3l8.6-1.5c0.7-0.1,1.2-0.8,1.1-1.6L44.9,9.5L34.9,11.2z"/>
	<path class="st3" d="M12.8,54.4c-0.7,0-1.3-0.5-1.4-1.2L3.7,8C3.6,7.2,4.1,6.5,4.8,6.4L41.9,0c0.8-0.1,1.5,0.4,1.6,1.2l7.7,45.2
		c0.1,0.8-0.4,1.5-1.2,1.6L13,54.4C13,54.4,12.9,54.4,12.8,54.4z M42.2,0.1c-0.1,0-0.1,0-0.2,0L4.9,6.5C4.2,6.6,3.7,7.3,3.8,8
		l7.7,45.2c0.1,0.7,0.8,1.2,1.5,1.1l37.1-6.3c0.7-0.1,1.2-0.8,1.1-1.5L43.4,1.2C43.3,0.6,42.8,0.1,42.2,0.1z"/>
	<path id="highlight" class="st4" d="M50,47.4l-36.9,6.3c-0.8,0.1-1.5-0.4-1.7-1.2l0,0c0.1,0.7,0.9,1.1,1.6,1L50,47.2
		c0.7-0.1,1.2-0.8,1-1.5l0,0C51.2,46.5,50.8,47.3,50,47.4z"/>
	<g>
		<linearGradient id="SVGID_3_" gradientUnits="userSpaceOnUse" x1="48.5402" y1="74.4082" x2="88.8639" y2="74.4082" gradientTransform="matrix(0.9857 -0.1685 -0.1685 -0.9857 -30.9651 92.9921)">
			<stop  offset="0" style="stop-color:#333333"/>
			<stop  offset="1" style="stop-color:#222222"/>
		</linearGradient>
		<path class="st5" d="M5.2,16.3L3.7,8C3.6,7.2,4.1,6.5,4.8,6.4l37.1-6.3c0.7-0.1,1.4,0.4,1.6,1.1l1.4,8.3"/>
		<rect x="28.2" y="12.6" transform="matrix(0.9857 -0.1685 0.1685 0.9857 -4.9895 5.2267)" class="st6" width="0.1" height="38.8"/>
		<rect x="17.6" y="14.4" transform="matrix(0.9857 -0.1685 0.1685 0.9857 -4.7708 3.402)" class="st6" width="0.1" height="30.9"/>
		<rect x="38.1" y="10.9" transform="matrix(0.9857 -0.1685 0.1685 0.9857 -4.5632 6.8695)" class="st6" width="0.1" height="38.8"/>
		<rect x="6.2" y="20.5" transform="matrix(0.9857 -0.1685 0.1685 0.9857 -3.0853 4.7339)" class="st6" width="40.3" height="0.1"/>
		<rect x="8.8" y="35.5" transform="matrix(0.9857 -0.1684 0.1684 0.9857 -5.5798 5.377)" class="st6" width="40.3" height="0.1"/>
		<rect x="7.5" y="27.9" transform="matrix(0.9857 -0.1684 0.1684 0.9857 -4.3105 5.0477)" class="st6" width="40.3" height="0.1"/>
		<rect x="10.1" y="43.3" transform="matrix(0.9857 -0.1684 0.1684 0.9857 -6.8629 5.7099)" class="st6" width="40.3" height="0.1"/>
	</g>
	<g>
		<path class="st7" d="M16,12l-0.7-4c-0.1,0.1-0.2,0.2-0.4,0.3c-0.2,0.1-0.4,0.3-0.7,0.3l-0.1,0L14,8.2l0.1,0
			c0.2-0.1,0.5-0.2,0.6-0.4c0.2-0.2,0.3-0.4,0.4-0.6l0-0.1L15.6,7l0.8,5L16,12z"/>
		<path class="st7" d="M18.5,11.6l-0.2-0.9l0.6-0.1l0.2,0.9L18.5,11.6z"/>
		<path class="st7" d="M21.4,11.1c-0.2,0-0.4,0-0.5-0.1c-0.3-0.1-0.5-0.2-0.6-0.4c-0.2-0.2-0.3-0.4-0.4-0.7c-0.1-0.3-0.2-0.5-0.2-0.8
			c0-0.2-0.1-0.4-0.1-0.6c0-0.2,0-0.4,0-0.6c0-0.2,0-0.4,0.1-0.6c0.1-0.2,0.1-0.4,0.3-0.6c0.1-0.2,0.3-0.3,0.4-0.4
			C20.4,6.1,20.7,6,20.9,6c0.4-0.1,0.8,0,1.1,0.2c0.3,0.2,0.5,0.5,0.7,0.9l0,0.1l-0.5,0.1l0-0.1c0-0.1-0.1-0.3-0.2-0.4
			c-0.1-0.1-0.2-0.2-0.3-0.2s-0.2-0.1-0.3-0.1c-0.1,0-0.3,0-0.4,0c-0.3,0.1-0.5,0.2-0.7,0.3C20.2,7,20.1,7.2,20,7.4
			C20,7.7,19.9,8,20,8.2c0,0.1,0,0.2,0,0.3c0.1-0.1,0.2-0.3,0.3-0.4c0.1-0.1,0.2-0.2,0.4-0.3c0.1-0.1,0.3-0.1,0.5-0.2
			c0.2,0,0.5,0,0.7,0c0.2,0.1,0.4,0.1,0.6,0.3c0.2,0.1,0.3,0.3,0.4,0.5c0.1,0.2,0.2,0.4,0.2,0.7c0,0.2,0,0.5,0,0.7
			c0,0.2-0.1,0.4-0.3,0.6c-0.1,0.2-0.3,0.3-0.5,0.5c-0.2,0.1-0.4,0.2-0.7,0.2l0,0C21.6,11.1,21.5,11.1,21.4,11.1z M20.2,9.6
			c0,0.2,0.1,0.3,0.2,0.5c0.1,0.1,0.2,0.3,0.3,0.3c0.1,0.1,0.3,0.2,0.4,0.2c0.2,0,0.3,0,0.5,0c0.2,0,0.3-0.1,0.5-0.2
			c0.1-0.1,0.2-0.2,0.3-0.3c0.1-0.1,0.1-0.3,0.2-0.4c0-0.2,0-0.3,0-0.5c0-0.2-0.1-0.3-0.2-0.5s-0.2-0.3-0.3-0.4s-0.3-0.2-0.4-0.2
			c-0.2,0-0.3,0-0.5,0c-0.2,0-0.3,0.1-0.5,0.2c-0.1,0.1-0.2,0.2-0.3,0.3s-0.1,0.3-0.2,0.4C20.2,9.3,20.2,9.4,20.2,9.6L20.2,9.6z"/>
		<path class="st7" d="M25.4,10.4l-0.7-4c-0.1,0.1-0.2,0.2-0.4,0.3c-0.2,0.1-0.4,0.3-0.7,0.3l-0.1,0l-0.1-0.5l0.1,0
			c0.2-0.1,0.5-0.2,0.6-0.4c0.2-0.2,0.3-0.4,0.4-0.6l0-0.1l0.4-0.1l0.8,5L25.4,10.4z"/>
		<path class="st7" d="M28.8,9.9c-0.1,0-0.2,0-0.2,0c-0.2,0-0.4-0.1-0.6-0.2c-0.2-0.1-0.3-0.2-0.5-0.4c-0.1-0.2-0.2-0.4-0.3-0.7l0,0
			c-0.1-0.4,0-0.7,0.1-1c0.1-0.2,0.2-0.3,0.4-0.4c-0.1,0-0.3-0.1-0.4-0.2c-0.2-0.2-0.3-0.4-0.4-0.7c0-0.2,0-0.5,0-0.6
			c0.1-0.2,0.2-0.3,0.3-0.5c0.1-0.1,0.3-0.2,0.5-0.3c0.2-0.1,0.4-0.1,0.6-0.2c0.2,0,0.4,0,0.6,0c0.2,0,0.4,0.1,0.5,0.1
			c0.2,0.1,0.3,0.2,0.4,0.3c0.1,0.2,0.2,0.4,0.2,0.6c0,0.3,0,0.6-0.1,0.8c-0.1,0.1-0.2,0.2-0.3,0.3c0.2,0,0.4,0.1,0.5,0.2
			c0.2,0.2,0.4,0.5,0.5,0.9c0,0.3,0,0.5,0,0.7c-0.1,0.2-0.2,0.4-0.3,0.6c-0.1,0.2-0.3,0.3-0.5,0.4c-0.2,0.1-0.4,0.2-0.7,0.2
			C29.1,9.8,29,9.9,28.8,9.9z M29.2,7.3c-0.1,0-0.2,0-0.4,0c-0.2,0-0.3,0.1-0.5,0.1c-0.1,0.1-0.3,0.1-0.4,0.2
			c-0.1,0.1-0.2,0.2-0.2,0.3c0,0.1,0,0.3,0,0.5v0c0,0.2,0.1,0.3,0.2,0.5c0.1,0.1,0.2,0.2,0.3,0.3c0.1,0.1,0.3,0.1,0.4,0.1
			c0.2,0,0.3,0,0.5,0c0.2,0,0.3-0.1,0.5-0.1C29.8,9.1,29.9,9,30,8.9c0.1-0.1,0.2-0.2,0.2-0.4c0-0.1,0-0.3,0-0.5
			c0-0.2-0.1-0.3-0.2-0.4c-0.1-0.1-0.2-0.2-0.3-0.3c-0.1-0.1-0.3-0.1-0.4-0.1C29.3,7.3,29.2,7.3,29.2,7.3z M28.8,5.1
			c-0.1,0-0.2,0-0.3,0c-0.1,0-0.3,0.1-0.4,0.1c-0.1,0-0.2,0.1-0.3,0.2c-0.1,0.1-0.1,0.2-0.2,0.3s0,0.3,0,0.4c0,0.1,0.1,0.3,0.1,0.4
			c0.1,0.1,0.2,0.2,0.3,0.2c0.1,0,0.2,0.1,0.4,0.1c0.1,0,0.3,0,0.4,0l0,0c0.1,0,0.3-0.1,0.4-0.1c0.1-0.1,0.2-0.1,0.3-0.2
			c0.1-0.1,0.1-0.2,0.2-0.3c0-0.1,0-0.2,0-0.4c0-0.2-0.1-0.3-0.2-0.4c-0.1-0.1-0.2-0.2-0.3-0.2C29.1,5.2,29,5.2,28.8,5.1
			C28.9,5.1,28.8,5.1,28.8,5.1z"/>
		<path class="st7" d="M32.7,9.2c-0.2,0-0.4,0-0.6-0.1c-0.3-0.1-0.5-0.3-0.7-0.5c-0.2-0.2-0.3-0.5-0.4-0.8c-0.1-0.3-0.2-0.6-0.2-0.9
			c0-0.3-0.1-0.6-0.1-0.9c0-0.3,0-0.6,0.1-0.9c0.1-0.3,0.2-0.5,0.5-0.7c0.2-0.2,0.5-0.3,0.9-0.4c0.4-0.1,0.7,0,1,0.1
			c0.3,0.1,0.5,0.3,0.7,0.5c0.2,0.2,0.3,0.5,0.4,0.8c0.1,0.3,0.2,0.6,0.2,0.9c0,0.3,0.1,0.6,0.1,0.9c0,0.3,0,0.6-0.1,0.9
			c-0.1,0.3-0.2,0.5-0.5,0.7C33.7,9,33.4,9.1,33,9.2C32.9,9.2,32.8,9.2,32.7,9.2z M32.5,4.5c-0.1,0-0.2,0-0.2,0
			c-0.3,0-0.5,0.1-0.6,0.3c-0.1,0.2-0.3,0.3-0.3,0.6c-0.1,0.2-0.1,0.5-0.1,0.7c0,0.3,0,0.5,0.1,0.7c0,0.2,0.1,0.5,0.2,0.7
			c0.1,0.2,0.2,0.5,0.3,0.6c0.1,0.2,0.3,0.3,0.5,0.4c0.2,0.1,0.4,0.1,0.7,0.1l0,0c0.3,0,0.5-0.1,0.6-0.3c0.2-0.2,0.3-0.3,0.3-0.6
			C34,7.6,34,7.4,34,7.1c0-0.3,0-0.5-0.1-0.7c0-0.2-0.1-0.5-0.2-0.7c-0.1-0.2-0.2-0.5-0.3-0.6c-0.1-0.2-0.3-0.3-0.5-0.4
			C32.8,4.5,32.7,4.5,32.5,4.5z"/>
		<path class="st7" d="M36.4,8.6c-0.1,0-0.2,0-0.3,0c-0.2,0-0.4-0.1-0.6-0.2C35.2,8.2,35.1,8,35,7.8c-0.1-0.2-0.2-0.4-0.2-0.7l0-0.1
			l0.5-0.1l0,0.1c0,0.2,0.1,0.4,0.2,0.5c0.1,0.1,0.2,0.3,0.3,0.4C35.9,8,36,8,36.2,8.1c0.2,0,0.4,0,0.6,0C36.9,8,37,8,37.2,7.9
			c0.1-0.1,0.3-0.2,0.4-0.3c0.1-0.1,0.2-0.2,0.2-0.4c0-0.1,0.1-0.3,0-0.5c0-0.2-0.1-0.4-0.2-0.5c-0.1-0.1-0.2-0.2-0.4-0.2
			C37.1,6,36.9,6,36.7,6c-0.2,0-0.4,0-0.6,0.1l-0.1,0L36,5.6l0.1,0c0.2,0,0.3-0.1,0.5-0.1c0.2-0.1,0.3-0.1,0.4-0.2
			c0.1-0.1,0.2-0.2,0.3-0.3c0.1-0.1,0.1-0.3,0-0.5c0-0.1-0.1-0.3-0.2-0.3C37,4.1,36.9,4,36.8,4c-0.1-0.1-0.3-0.1-0.4-0.1
			c-0.1,0-0.3,0-0.4,0c-0.2,0-0.3,0.1-0.5,0.2s-0.2,0.2-0.3,0.3c-0.1,0.1-0.1,0.3-0.1,0.4c0,0.2,0,0.3,0,0.5l0,0.1l-0.5,0.1l0-0.1
			c0-0.2,0-0.5,0-0.7c0-0.2,0.1-0.4,0.2-0.6s0.3-0.3,0.5-0.4c0.2-0.1,0.4-0.2,0.7-0.2c0.2,0,0.4,0,0.6,0c0.2,0,0.4,0.1,0.6,0.1
			c0.2,0.1,0.3,0.2,0.4,0.3c0.1,0.2,0.2,0.3,0.2,0.6c0,0.2,0,0.3,0,0.4c0,0.1-0.1,0.3-0.1,0.4c-0.1,0.1-0.2,0.2-0.3,0.3c0,0,0,0,0,0
			c0,0,0.1,0,0.1,0c0.2,0.1,0.3,0.1,0.4,0.2C37.9,6,38,6.1,38.1,6.2c0.1,0.1,0.1,0.3,0.2,0.5c0,0.2,0,0.5,0,0.7
			c-0.1,0.2-0.2,0.4-0.3,0.5c-0.1,0.2-0.3,0.3-0.5,0.4c-0.2,0.1-0.4,0.2-0.6,0.2C36.7,8.6,36.5,8.6,36.4,8.6z"/>
		<path class="st7" d="M41.1,7.7l-0.2-1.2l-2.3,0.4l-0.1-0.4l0,0l1.8-3.7l0.4-0.1l0,0.1L41.3,6l0.8-0.1l0.1,0.5l-0.8,0.1l0.2,1.2
			L41.1,7.7z M40.4,3.6l-1.3,2.7L40.8,6L40.4,3.6z"/>
	</g>
	<g id="numbers" class="st8">
		<polygon points="14.7,43.7 14.2,41.1 13.6,41.7 13.5,41.2 14.2,40.5 14.6,40.4 15.1,43.6 	"/>
		<path d="M23.5,42.2l0-0.2l1-1.5c0.3-0.4,0.3-0.6,0.3-0.9c0-0.2-0.1-0.3-0.2-0.3c-0.1-0.1-0.2-0.1-0.4-0.1c-0.3,0.1-0.5,0.3-0.5,0.7
			l0,0.1l-0.5,0.1l0-0.1c-0.1-0.6,0.3-1.1,0.9-1.2c0.3,0,0.5,0,0.7,0.1c0.2,0.1,0.4,0.4,0.4,0.6c0.1,0.4-0.1,0.8-0.4,1.2l-0.6,0.9
			l1.4-0.2l0.1,0.4L23.5,42.2z"/>
		<path d="M34.4,40.4c-0.5,0-0.9-0.3-1.1-0.8l0-0.1l0.5-0.1l0,0.1c0.1,0.2,0.2,0.5,0.8,0.5c0.3,0,0.6-0.2,0.5-0.6
			c-0.1-0.3-0.3-0.5-0.6-0.4l-0.3,0.1L34,38.5l0.3-0.1c0.2,0,0.3-0.1,0.3-0.2c0.1-0.1,0.1-0.2,0.1-0.3c0-0.1-0.1-0.2-0.2-0.3
			c-0.1-0.1-0.2-0.1-0.4-0.1c-0.3,0.1-0.5,0.3-0.5,0.6l0,0.1l-0.5,0.1l0-0.1c-0.1-0.5,0.3-1,0.9-1.1c0.6-0.1,1,0.2,1.1,0.7
			c0,0.3,0,0.5-0.2,0.7c0.3,0.1,0.5,0.4,0.5,0.7c0.1,0.3,0,0.6-0.2,0.8c-0.2,0.2-0.4,0.3-0.7,0.4C34.5,40.4,34.4,40.4,34.4,40.4z"/>
		<path d="M13.7,35.9l-0.1-0.7l-1.5,0.3l0-0.2l0,0l1.1-2.5l0.2,0l0.1-0.1l0,0.1l0.2,0l0.4,2.1l0.4-0.1l0.1,0.4l-0.4,0.1l0.1,0.7
			L13.7,35.9z M13.3,33.4L12.6,35l0.9-0.2L13.3,33.4z"/>
		<path d="M23,34.4c-0.5,0-0.9-0.3-1-0.7l0-0.1l0.5-0.1l0,0.1c0.1,0.3,0.3,0.5,0.7,0.4c0.2,0,0.3-0.1,0.4-0.3
			c0.1-0.1,0.1-0.3,0.1-0.5c0-0.2-0.1-0.4-0.3-0.5c-0.1-0.1-0.3-0.1-0.5-0.1c-0.3,0-0.5,0.2-0.6,0.4l0,0.1l-0.3,0l-0.3-1.8l1.9-0.3
			l0.1,0.4l-1.4,0.2l0.1,0.7c0.1-0.1,0.3-0.2,0.5-0.2c0.6-0.1,1.1,0.3,1.2,0.9c0.1,0.7-0.3,1.2-0.9,1.3C23.2,34.3,23.1,34.4,23,34.4z
			"/>
		<path d="M33.1,32.6c-0.6,0-1-0.4-1.1-1.2v0l0-0.2c-0.1-0.5-0.1-1,0.1-1.3c0.2-0.3,0.5-0.5,0.8-0.6c0.5-0.1,0.9,0.1,1.1,0.6l0,0.1
			l-0.5,0.1l0-0.1c-0.1-0.3-0.3-0.3-0.6-0.3c-0.4,0.1-0.6,0.4-0.6,1c0.2-0.2,0.4-0.3,0.7-0.4c0.6-0.1,1.2,0.2,1.3,0.9
			c0.1,0.3,0,0.6-0.2,0.8c-0.2,0.2-0.4,0.4-0.8,0.4C33.2,32.6,33.1,32.6,33.1,32.6z M33.2,30.9c0,0-0.1,0-0.2,0
			c-0.3,0.1-0.6,0.3-0.5,0.7c0,0.2,0.1,0.4,0.3,0.5c0.1,0.1,0.3,0.1,0.5,0.1c0.2,0,0.3-0.1,0.4-0.2c0.1-0.1,0.1-0.3,0.1-0.5v0
			c0-0.2-0.1-0.4-0.2-0.4C33.4,30.9,33.3,30.9,33.2,30.9z"/>
		<polygon points="11.5,28.6 12.1,25.6 10.6,25.9 10.5,25.5 12.7,25.1 12.7,25.3 12.7,25.3 12,28.5 	"/>
		<path d="M21.8,26.9c-0.2,0-0.4,0-0.6-0.1c-0.3-0.1-0.4-0.4-0.5-0.7l0,0c-0.1-0.3,0.1-0.7,0.3-0.9c-0.2-0.1-0.4-0.3-0.4-0.6
			c-0.1-0.6,0.4-1,0.8-1c0.6-0.1,1.1,0.2,1.1,0.7c0,0.3,0,0.5-0.2,0.7c0.3,0.1,0.5,0.4,0.6,0.7c0.1,0.6-0.3,1.1-0.9,1.2
			C21.9,26.9,21.9,26.9,21.8,26.9z M21.9,25.3c-0.1,0-0.1,0-0.1,0c-0.2,0-0.3,0.1-0.4,0.2c-0.1,0.1-0.1,0.3-0.1,0.4
			c0,0.2,0.1,0.3,0.2,0.4c0.1,0.1,0.3,0.1,0.5,0.1c0.2,0,0.6-0.2,0.5-0.7l0,0C22.4,25.4,22.2,25.3,21.9,25.3z M21.7,24
			c0,0-0.1,0-0.1,0c-0.3,0-0.5,0.2-0.4,0.5c0.1,0.3,0.3,0.4,0.6,0.4c0.3-0.1,0.5-0.3,0.4-0.5l0,0C22.1,24.1,21.9,24,21.7,24z"/>
		<path d="M31.7,25.2c-0.4,0-0.8-0.2-0.9-0.7l-0.1-0.1l0.5-0.1l0,0.1c0.1,0.3,0.3,0.4,0.6,0.3c0.3-0.1,0.6-0.2,0.6-1
			C32.2,23.9,32,24,31.7,24c-0.7,0.1-1.2-0.2-1.3-0.9c-0.1-0.7,0.3-1.2,0.9-1.3c0.4-0.1,0.7,0,0.9,0.2c0.2,0.2,0.4,0.5,0.4,0.9
			l0.1,0.3c0.1,0.5,0.1,1-0.1,1.3c-0.2,0.3-0.4,0.5-0.8,0.5C31.8,25.2,31.8,25.2,31.7,25.2z M31.6,22.3c0,0-0.1,0-0.1,0
			c-0.2,0-0.3,0.1-0.4,0.3c-0.1,0.1-0.1,0.3-0.1,0.5c0.1,0.4,0.3,0.6,0.8,0.5c0.3-0.1,0.6-0.3,0.6-0.7C32.2,22.6,32,22.3,31.6,22.3z"
			/>
		<path d="M21.4,50.5c-0.3,0-0.5-0.1-0.8-0.3c-0.3-0.2-0.4-0.6-0.5-1v0l0-0.2c-0.2-0.9,0.2-1.6,1-1.7c0.8-0.1,1.4,0.4,1.5,1.3l0,0.3
			c0.1,0.5,0,1-0.2,1.3c-0.2,0.2-0.4,0.4-0.8,0.5C21.6,50.5,21.5,50.5,21.4,50.5z M21.3,47.6c0,0-0.1,0-0.1,0
			c-0.7,0.1-0.7,0.8-0.6,1.2l0,0.3c0.1,0.5,0.3,1,1,0.9c0.5-0.1,0.7-0.5,0.6-1.2l0-0.2c-0.1-0.3-0.2-0.6-0.3-0.8
			C21.6,47.7,21.5,47.6,21.3,47.6z"/>
		<path d="M9,21.1l0.5-2.7l0.2,0l0-0.1l0.1,0.1l0.2,0l1.3,2.4l-0.4,0.1l-0.4-0.6l-0.8,0.1L9.4,21L9,21.1z M9.8,19l-0.1,0.8l0.6-0.1
			L9.8,19z"/>
		<path d="M12,20.6c-0.6,0-1-0.4-1.2-1.1l0,0c-0.1-0.4,0-0.7,0.2-1s0.5-0.5,0.8-0.5c0.6-0.1,1,0.1,1.2,0.6l0,0.1l-0.4,0.1l0-0.1
			c-0.1-0.3-0.3-0.4-0.7-0.4c-0.4,0.1-0.7,0.5-0.6,1c0.1,0.3,0.2,0.5,0.3,0.6c0.2,0.1,0.4,0.2,0.6,0.1c0.4-0.1,0.6-0.3,0.6-0.6l0-0.1
			l0.4-0.1l0,0.1c0,0.5-0.3,0.9-0.9,1C12.1,20.6,12.1,20.6,12,20.6z"/>
		<polygon points="19.6,18.4 19.5,17.7 18.8,17.8 18.8,17.4 19.4,17.3 19.3,16.7 19.7,16.6 19.8,17.3 20.4,17.2 20.5,17.6 19.9,17.7 
			20,18.3 	"/>
		<polygon points="20.4,19.5 20.1,19.4 21.1,16.3 21.5,16.4 	"/>
		<rect x="21.1" y="18.2" transform="matrix(0.9854 -0.1704 0.1704 0.9854 -2.8098 3.9865)" width="1.4" height="0.4"/>
		<path d="M30.3,17.5L30,17.3l1-2.4l0.3,0.2L30.3,17.5z M31.4,17.2c-0.1,0-0.2,0-0.3-0.1c-0.1-0.1-0.2-0.2-0.2-0.4
			c-0.1-0.3,0.1-0.6,0.4-0.6c0.1,0,0.3,0,0.4,0.1c0.1,0.1,0.2,0.2,0.2,0.4c0,0.2,0,0.3-0.1,0.4C31.8,17.1,31.7,17.1,31.4,17.2
			C31.5,17.2,31.4,17.2,31.4,17.2z M31.4,16.4C31.4,16.4,31.4,16.4,31.4,16.4c-0.1,0-0.2,0.1-0.2,0.2c0,0.1,0.1,0.2,0.2,0.2
			c0,0,0.1,0,0.1-0.1c0,0,0-0.1,0-0.2v0C31.6,16.5,31.5,16.5,31.4,16.4C31.5,16.4,31.4,16.4,31.4,16.4z M29.9,16.3
			c-0.2,0-0.5-0.2-0.5-0.5l0,0c0-0.2,0-0.3,0.1-0.4c0.1-0.1,0.2-0.2,0.3-0.2c0.1,0,0.3,0,0.4,0.1c0.1,0.1,0.2,0.2,0.2,0.4
			C30.5,16,30.3,16.3,29.9,16.3C30,16.3,30,16.3,29.9,16.3z M29.9,15.6C29.9,15.6,29.9,15.6,29.9,15.6c-0.1,0-0.1,0-0.1,0.1
			c0,0,0,0.1,0,0.2c0,0.1,0,0.1,0.1,0.1c0,0,0.1,0,0.1,0c0.1,0,0.1-0.1,0.1-0.2C30.1,15.7,30,15.6,29.9,15.6
			C30,15.6,30,15.6,29.9,15.6z"/>
		<polygon points="35.8,47.9 35.5,47.7 35.6,47 36.1,47.1 	"/>
	</g>
	<g>
		<polygon class="st7" points="39.5,15.1 39.4,14.7 41.9,14.3 42,14.7 	"/>
		<polygon class="st7" points="44.3,38.2 44.1,37.2 43.2,37.4 43.1,36.9 44.1,36.8 43.9,35.7 44.3,35.7 44.5,36.7 45.5,36.5 45.6,37 
			44.6,37.1 44.8,38.2 	"/>
		<polygon class="st7" points="41.8,29.9 41.8,29.5 44.4,29 44.4,29.5 	"/>
		<polygon class="st7" points="41.1,22.9 40.8,22.7 41.4,21.8 40.6,21.2 40.8,20.9 41.6,21.4 42.2,20.6 42.6,20.8 42,21.7 42.8,22.3 
			42.6,22.6 41.7,22.1 	"/>
		<path class="st7" d="M44.6,45.6l-0.1-0.4l2.6-0.4l0.1,0.4L44.6,45.6z M44.5,44.7l-0.1-0.4l2.6-0.4l0.1,0.4L44.5,44.7z"/>
		<path class="st7" d="M40.5,14.3c-0.2,0-0.3-0.1-0.3-0.3s0.1-0.3,0.3-0.3s0.3,0.1,0.3,0.3S40.7,14.3,40.5,14.3z M40.5,13.9
			C40.5,13.9,40.5,14,40.5,13.9C40.5,14.1,40.6,14.1,40.5,13.9C40.6,14,40.5,13.9,40.5,13.9z"/>
		<path class="st7" d="M40.8,15.8c-0.2,0-0.3-0.1-0.3-0.3s0.1-0.3,0.3-0.3s0.3,0.1,0.3,0.3S40.9,15.8,40.8,15.8z M40.8,15.4
			C40.7,15.4,40.7,15.4,40.8,15.4C40.7,15.5,40.8,15.5,40.8,15.4C40.8,15.4,40.8,15.4,40.8,15.4z"/>
	</g>
</svg>
