<svg xmlns="http://www.w3.org/2000/svg" viewBox="0 0 500 500">

	<defs>
		<filter x="-6.1%" y="-3.9%" width="112.1%" height="113.2%" filterUnits="objectBoundingBox" id="calc-filter-1">
			<feOffset dx="0" dy="6" in="SourceAlpha" result="calcShadowOffsetOuter2"></feOffset>
			<feGaussianBlur stdDeviation="6" in="calcShadowOffsetOuter2" result="calcShadowBlurOuter2"></feGaussianBlur>
			<feColorMatrix values="0 0 0 0 0   0 0 0 0 0   0 0 0 0 0  0 0 0 0.5 0" type="matrix" in="calcShadowBlurOuter2" result="calcShadowMatrixOuter2"></feColorMatrix>
			<feMerge>
				<feMergeNode in="calcShadowMatrixOuter2"></feMergeNode>
				<feMergeNode in="SourceGraphic"></feMergeNode>
			</feMerge>
		</filter>
		<linearGradient id="calc_svgid_1_" gradientUnits="userSpaceOnUse" x1="248.2251" y1="55.8257" x2="248.2251" y2="458.8042" gradientTransform="matrix(0.9857 -0.1685 0.1685 0.9857 -38.3965 35.4165)">
			<stop  offset="0" style="stop-color:#e0e0e0"/>
			<stop  offset="1" style="stop-color:#AAABAE"/>
		</linearGradient>
		<linearGradient id="calc_svgid_2_" gradientUnits="userSpaceOnUse" x1="373.4561" y1="136.9819" x2="373.4561" y2="458.8032" gradientTransform="matrix(0.9857 -0.1685 0.1685 0.9857 -38.3965 35.4165)">
			<stop  offset="0" style="stop-color:#F77f2a"/>
			<stop  offset="1" style="stop-color:#CC641B"/>
		</linearGradient>
		<linearGradient id="calc_svgid_3_" gradientUnits="userSpaceOnUse" x1="81.0186" y1="96.4038" x2="415.4336" y2="96.4038" gradientTransform="matrix(0.9857 -0.1685 0.1685 0.9857 -38.3965 35.4165)">
			<stop  offset="0" style="stop-color:#333"/>
			<stop  offset="1" style="stop-color:#222"/>
		</linearGradient>
	</defs>

	<g filter="url(#calc-filter-1)">
		<path fill="#231F20" d="M438.301,425.079l-307.568,52.564c-8.365,1.431-13.034-6.196-14.465-14.562l4.617-0.789 c0.65,3.802,4.632,7.725,8.434,7.076l307.566-52.565c3.802-0.65,6.581-7.149,5.934-10.95l4.137-0.708 C448.385,413.511,446.666,423.648,438.301,425.079z"/>
		<path fill="url(#calc_svgid_1_)" d="M446.505,406.642c1.041,6.094-3.056,11.878-9.147,12.92L129.79,472.128 c-6.094,1.041-11.878-3.056-12.919-9.148L52.755,87.831c-1.041-6.094,3.053-11.878,9.147-12.921l307.566-52.565 c6.095-1.041,11.88,3.054,12.921,9.148L446.505,406.642z"/>
	</g>
	<path fill="url(#calc_svgid_2_)" d="M311.422,114.598l54.215,317.222l71.721-12.258c6.092-1.042,10.188-6.826,9.147-12.92 l-52.329-306.188L311.422,114.598z"/>
	<path id="outline" fill="none" stroke="#545454" stroke-width="1" d="M446.505,406.642 c1.041,6.094-3.056,11.878-9.147,12.92L129.79,472.128c-6.094,1.041-11.878-3.056-12.919-9.148L52.755,87.831 c-1.041-6.094,3.053-11.878,9.147-12.921l307.566-52.565c6.095-1.041,11.88,3.054,12.921,9.148L446.505,406.642z"/>
	<path id="highlight" opacity="0.35" fill="#FFFFFF" d="M436.532,414.733l-306.189,52.33c-6.463,1.105-12.622-3.255-13.727-9.72l0,0 c0.976,5.705,7.789,9.315,13.492,8.341l306.188-52.33c5.704-0.974,9.549-6.408,8.576-12.111l0,0 C445.978,407.706,442.996,413.629,436.532,414.733z"/>
	<path fill="url(#calc_svgid_3_)" stroke="#545454" stroke-width="1" d="M64.541,156.792L52.755,87.831 c-1.041-6.094,3.053-11.878,9.147-12.921l307.566-52.565c6.095-1.041,11.88,3.054,12.921,9.148l11.787,68.961"/>
	<line fill="none" stroke="#333333" stroke-width="1" x1="229.357" y1="128.623" x2="283.572" y2="445.845"/>
	<line fill="none" stroke="#333333" stroke-width="1" x1="146.604" y1="142.767" x2="189.742" y2="395.163"/>
	<line fill="none" stroke="#333333" stroke-width="1" x1="311.422" y1="114.598" x2="365.637" y2="431.819"/>
	<line fill="none" stroke="#333333" stroke-width="1" x1="405.018" y1="163.898" x2="75.383" y2="220.235"/>
	<line fill="none" stroke="#333333" stroke-width="1" x1="64.541" y1="156.792" x2="394.176" y2="100.454"/>
	<line fill="none" stroke="#333333" stroke-width="1" x1="426.35" y1="288.719" x2="96.716" y2="345.056"/>
	<line fill="none" stroke="#333333" stroke-width="1" x1="85.873" y1="281.61" x2="415.509" y2="225.274"/>
	<line fill="none" stroke="#333333" stroke-width="1" x1="107.677" y1="409.189" x2="437.312" y2="352.853"/>
	<path fill="#EEEEEE" d="M148.856,85.237c-1.143,1.708-2.55,3.133-4.217,4.271c-1.667,1.14-3.465,1.969-5.394,2.493l-0.318-1.867 c2.203-0.724,4.123-1.867,5.757-3.427c1.634-1.56,2.863-3.457,3.683-5.692l1.924-0.329l6.668,39.018l-2.148,0.366L148.856,85.237z" />
	<path fill="#EEEEEE" d="M175.076,110.612l2.885-0.492l0.995,5.824l-2.883,0.493L175.076,110.612z"/>
	<path fill="#EEEEEE" d="M201.805,112.738c-2.715,0.464-5.056,0.339-7.019-0.372c-1.965-0.712-3.618-1.817-4.96-3.314 c-1.343-1.496-2.42-3.311-3.229-5.442c-0.812-2.131-1.418-4.385-1.826-6.761c-0.271-1.583-0.477-3.244-0.618-4.985 c-0.145-1.741-0.157-3.465-0.041-5.173c0.115-1.708,0.387-3.356,0.814-4.941c0.426-1.586,1.082-3.028,1.968-4.324 c0.883-1.295,2.014-2.391,3.394-3.286c1.38-0.895,3.069-1.514,5.067-1.855c3.317-0.567,6.192-0.146,8.626,1.261 c2.433,1.409,4.121,3.738,5.065,6.992l-2.149,0.368c-0.438-1.207-1.029-2.279-1.772-3.219c-0.744-0.94-1.602-1.705-2.575-2.295 c-0.974-0.59-2.044-0.998-3.207-1.227c-1.166-0.227-2.387-0.232-3.668-0.014c-2.678,0.459-4.708,1.525-6.089,3.195 c-1.383,1.672-2.323,3.607-2.82,5.807c-0.498,2.2-0.677,4.501-0.537,6.902c0.138,2.401,0.373,4.562,0.701,6.486l0.132,0.093 c0.202-1.314,0.611-2.558,1.224-3.73c0.615-1.172,1.368-2.212,2.262-3.123c0.891-0.909,1.906-1.664,3.046-2.267 c1.138-0.602,2.368-1.014,3.688-1.241c1.921-0.328,3.741-0.29,5.46,0.115c1.718,0.404,3.252,1.101,4.606,2.093 c1.351,0.992,2.488,2.244,3.406,3.753c0.918,1.513,1.542,3.229,1.869,5.151c0.323,1.886,0.29,3.686-0.095,5.399 c-0.386,1.716-1.055,3.256-2.003,4.621c-0.951,1.367-2.171,2.514-3.659,3.449C205.375,111.787,203.688,112.416,201.805,112.738z  M188.534,101.503c0.279,1.622,0.825,3.07,1.645,4.345c0.82,1.278,1.805,2.331,2.956,3.162c1.152,0.831,2.445,1.416,3.879,1.751 c1.435,0.337,2.924,0.375,4.471,0.109c1.583-0.271,2.981-0.82,4.199-1.648c1.218-0.829,2.228-1.836,3.035-3.022 c0.807-1.185,1.367-2.503,1.681-3.953c0.314-1.451,0.34-2.949,0.076-4.494c-0.257-1.508-0.78-2.913-1.564-4.214 c-0.786-1.301-1.748-2.398-2.89-3.289c-1.142-0.891-2.435-1.535-3.88-1.928c-1.443-0.394-2.957-0.454-4.541-0.183 c-1.622,0.277-3.05,0.831-4.285,1.663c-1.235,0.832-2.255,1.852-3.057,3.054c-0.804,1.206-1.36,2.553-1.667,4.04 C188.283,98.385,188.264,99.92,188.534,101.503z"/>
	<path fill="#EEEEEE" d="M227.458,71.804c-1.144,1.709-2.55,3.133-4.217,4.27c-1.668,1.14-3.466,1.97-5.395,2.494l-0.318-1.865 c2.204-0.727,4.123-1.869,5.757-3.43c1.634-1.559,2.864-3.457,3.684-5.692l1.923-0.328l6.668,39.017l-2.148,0.369L227.458,71.804z" />
	<path fill="#EEEEEE" d="M248.576,92.522c-0.483-2.827-0.115-5.266,1.105-7.319c1.222-2.051,3.162-3.458,5.826-4.225l-0.019-0.114 c-2.454-0.046-4.414-0.729-5.881-2.049c-1.467-1.321-2.387-3.075-2.76-5.261c-0.317-1.848-0.24-3.452,0.224-4.812 c0.467-1.361,1.2-2.513,2.203-3.461s2.19-1.713,3.565-2.298c1.373-0.583,2.834-1.008,4.379-1.272 c1.509-0.258,3.018-0.34,4.527-0.25c1.51,0.093,2.893,0.418,4.152,0.979c1.26,0.562,2.337,1.405,3.228,2.533 c0.891,1.129,1.495,2.617,1.81,4.463c0.374,2.187,0.087,4.147-0.855,5.88c-0.948,1.734-2.569,3.028-4.867,3.887l0.021,0.112 c2.766-0.161,5.064,0.522,6.897,2.051c1.831,1.531,2.99,3.71,3.474,6.536c0.348,2.036,0.29,3.862-0.172,5.471 c-0.462,1.612-1.211,3.012-2.249,4.198c-1.039,1.186-2.348,2.156-3.928,2.911c-1.576,0.754-3.29,1.29-5.138,1.607 c-1.886,0.322-3.687,0.387-5.406,0.197c-1.721-0.191-3.268-0.672-4.643-1.449c-1.374-0.773-2.547-1.843-3.517-3.211 C249.583,96.259,248.925,94.558,248.576,92.522z M250.726,92.154c0.295,1.735,0.862,3.181,1.7,4.337 c0.839,1.156,1.845,2.053,3.02,2.684c1.175,0.634,2.484,1.032,3.93,1.192c1.443,0.161,2.919,0.112,4.428-0.145 c1.506-0.257,2.904-0.7,4.194-1.328s2.395-1.438,3.31-2.428c0.916-0.991,1.58-2.171,1.984-3.541 c0.407-1.369,0.462-2.921,0.167-4.655c-0.279-1.621-0.817-2.954-1.615-4.001c-0.801-1.046-1.793-1.847-2.971-2.403 c-1.184-0.554-2.49-0.883-3.925-0.987c-1.435-0.105-2.905-0.027-4.413,0.229c-1.546,0.264-2.968,0.682-4.267,1.253 c-1.299,0.571-2.414,1.315-3.344,2.23c-0.93,0.917-1.599,2-2.004,3.253C250.513,89.098,250.448,90.534,250.726,92.154z  M260.217,79.242c1.243-0.212,2.436-0.561,3.574-1.047c1.138-0.486,2.115-1.119,2.933-1.899c0.817-0.779,1.427-1.708,1.826-2.785 c0.396-1.077,0.478-2.312,0.237-3.707c-0.251-1.47-0.738-2.668-1.457-3.592c-0.721-0.924-1.596-1.618-2.626-2.083 s-2.161-0.727-3.395-0.787c-1.232-0.062-2.489,0.017-3.771,0.236c-1.282,0.219-2.493,0.562-3.637,1.029 c-1.142,0.468-2.122,1.091-2.939,1.87c-0.817,0.781-1.413,1.727-1.785,2.836c-0.374,1.112-0.435,2.402-0.183,3.873 c0.239,1.396,0.725,2.535,1.457,3.419c0.734,0.883,1.615,1.558,2.645,2.022c1.03,0.462,2.162,0.735,3.398,0.814 C257.731,79.521,258.972,79.455,260.217,79.242z"/>
	<path fill="#EEEEEE" d="M295.561,96.714c-2.828,0.484-5.25,0.267-7.27-0.649s-3.729-2.252-5.138-4.012 c-1.407-1.757-2.522-3.796-3.345-6.12c-0.825-2.322-1.435-4.653-1.836-6.991c-0.399-2.336-0.596-4.737-0.591-7.203 c0.006-2.465,0.38-4.759,1.123-6.884c0.743-2.126,1.913-3.956,3.515-5.49c1.599-1.535,3.812-2.544,6.641-3.028 c2.829-0.482,5.25-0.265,7.27,0.65s3.73,2.252,5.138,4.011c1.407,1.758,2.52,3.798,3.345,6.122 c0.823,2.324,1.436,4.652,1.834,6.989c0.402,2.339,0.599,4.739,0.594,7.204c-0.006,2.465-0.381,4.761-1.124,6.884 c-0.743,2.126-1.913,3.957-3.514,5.49C300.603,95.221,298.39,96.232,295.561,96.714z M295.241,94.849 c2.413-0.413,4.302-1.338,5.668-2.774c1.363-1.435,2.334-3.135,2.91-5.096c0.577-1.96,0.853-4.044,0.823-6.251 c-0.027-2.207-0.208-4.291-0.544-6.25c-0.334-1.959-0.855-3.987-1.561-6.078c-0.708-2.091-1.659-3.965-2.854-5.623 c-1.197-1.657-2.675-2.938-4.44-3.839c-1.763-0.9-3.854-1.146-6.264-0.734c-2.451,0.419-4.351,1.346-5.695,2.778 c-1.348,1.434-2.31,3.13-2.884,5.09c-0.576,1.962-0.853,4.046-0.822,6.253c0.027,2.206,0.208,4.291,0.544,6.25 c0.333,1.961,0.855,3.987,1.563,6.078c0.705,2.09,1.655,3.965,2.85,5.623c1.194,1.658,2.665,2.939,4.411,3.844 C290.693,95.024,292.79,95.267,295.241,94.849z"/>
	<path fill="#EEEEEE" d="M313.146,79.74c0.232,1.823,0.73,3.417,1.484,4.781c0.757,1.364,1.713,2.462,2.864,3.293 c1.15,0.832,2.489,1.399,4.015,1.7c1.527,0.302,3.194,0.298,5.004-0.011c1.432-0.245,2.793-0.69,4.077-1.336 c1.287-0.647,2.38-1.465,3.276-2.453c0.899-0.987,1.555-2.137,1.974-3.45c0.415-1.312,0.489-2.741,0.224-4.288 c-0.314-1.846-0.954-3.317-1.916-4.415c-0.965-1.096-2.126-1.877-3.486-2.344c-1.358-0.466-2.843-0.678-4.444-0.637 c-1.604,0.041-3.205,0.257-4.807,0.646l-0.32-1.865c1.446-0.169,2.875-0.481,4.294-0.938c1.415-0.456,2.653-1.094,3.717-1.916 c1.06-0.823,1.866-1.842,2.415-3.061c0.55-1.219,0.678-2.678,0.389-4.374c-0.232-1.357-0.746-2.491-1.542-3.404 c-0.798-0.91-1.748-1.602-2.858-2.072c-1.106-0.47-2.301-0.761-3.582-0.872c-1.282-0.111-2.504-0.067-3.674,0.132 c-1.696,0.29-3.137,0.827-4.32,1.612c-1.186,0.785-2.118,1.74-2.798,2.866c-0.684,1.125-1.135,2.403-1.354,3.838 c-0.219,1.433-0.229,2.969-0.027,4.602l-2.15,0.367c-0.328-1.922-0.339-3.734-0.027-5.437c0.312-1.702,0.915-3.213,1.817-4.53 c0.899-1.317,2.065-2.43,3.503-3.334c1.438-0.904,3.116-1.522,5.037-1.85c1.585-0.271,3.153-0.344,4.706-0.223 c1.555,0.122,2.974,0.482,4.258,1.076c1.287,0.596,2.392,1.454,3.32,2.577c0.929,1.121,1.544,2.55,1.839,4.283 c0.2,1.169,0.208,2.293,0.025,3.372c-0.187,1.08-0.55,2.072-1.091,2.98c-0.544,0.907-1.243,1.696-2.102,2.365 c-0.855,0.671-1.834,1.178-2.94,1.522l0.019,0.114c1.345-0.075,2.594,0.081,3.747,0.466c1.15,0.385,2.173,0.957,3.059,1.718 c0.888,0.761,1.626,1.682,2.219,2.763c0.593,1.083,1.003,2.283,1.227,3.603c0.328,1.921,0.257,3.662-0.213,5.216 c-0.473,1.556-1.229,2.917-2.271,4.084c-1.044,1.167-2.334,2.126-3.876,2.874c-1.538,0.748-3.213,1.277-5.025,1.586 c-2.148,0.366-4.132,0.395-5.949,0.084c-1.817-0.309-3.419-0.937-4.805-1.884c-1.383-0.947-2.512-2.209-3.383-3.786 c-0.869-1.577-1.435-3.471-1.697-5.676L313.146,79.74z"/>
	<path fill="#EEEEEE" d="M342.178,75.593l14.399-30.164l2.151-0.367l4.648,27.2l6.559-1.12l0.319,1.866l-6.562,1.121l1.703,9.952 l-2.151,0.368l-1.699-9.953l-18.999,3.248L342.178,75.593z M361.226,72.629L357.08,48.37l-0.115,0.019l-12.59,27.119 L361.226,72.629z"/>
	<g id="numbers">
		<path d="M140.283,360.435l-4.982,4.895l-0.306-1.792l5.223-5.151l1.621-0.275l4.213,24.647l-1.896,0.324L140.283,360.435z"/>
		<path d="M217.333,370.114l8.144-11.929c2.162-3.136,3.02-5.59,2.566-8.244c-0.56-3.275-2.935-4.714-6.106-4.173 c-3.171,0.542-5.1,2.753-4.893,6.868l-1.793,0.307c-0.416-4.718,2.105-8.023,6.414-8.76c4.241-0.725,7.589,1.222,8.319,5.496 c0.514,2.999-0.669,6.039-3.196,9.523l-6.615,9.254l12.996-2.221l0.272,1.586l-16.031,2.74L217.333,370.114z"/>
		<path d="M299.043,349.443l1.757-0.3c0.842,3.05,3.276,5.26,7.482,4.541c3.963-0.678,5.821-3.09,5.228-6.571 c-0.543-3.172-2.694-4.969-6.521-4.315l-1.792,0.307l-0.279-1.618l1.656-0.283c3.55-0.606,4.638-2.958,4.197-5.543 c-0.478-2.792-2.596-4.596-5.905-4.03c-3.41,0.584-5.247,3.134-5.05,6.15l-1.725,0.295c-0.402-3.8,2.156-7.322,6.498-8.064 c4.379-0.747,7.437,1.78,8.038,5.298c0.459,2.688-0.825,4.929-3.107,6.102c3.039,0.152,5.37,1.953,5.955,5.367 c0.765,4.481-2.132,7.674-6.958,8.497C303.45,356.141,299.887,353.344,299.043,349.443z"/>
		<path d="M135.26,312.884l-12.72,2.175l-0.1-0.588l8.764-20.551l2.689-0.46l2.992,17.513l3.412-0.584l0.272,1.588l-3.414,0.582 l0.949,5.551l-1.897,0.324L135.26,312.884z M134.989,311.297l-2.752-16.099l-7.417,17.836L134.989,311.297z"/>
		<path d="M205.227,300.109l1.862-0.318c0.884,2.687,2.928,4.68,6.926,3.997c3.931-0.673,5.839-3.624,5.132-7.762 c-0.667-3.896-3.618-6.017-7.032-5.433c-2.998,0.513-4.632,1.964-5.642,3.731l-0.725,0.123l-2.204-12.893l13.445-2.298 l0.282,1.656l-11.822,2.021l1.542,9.031c0.857-1.211,2.611-2.574,5.163-3.011c4.274-0.73,8.114,1.807,8.957,6.735 c0.877,5.138-2.068,8.869-6.825,9.683C209.289,306.227,206.191,303.669,205.227,300.109z"/>
		<path d="M287.423,282.193l-0.307-1.792c-1.544-9.033,1.635-13.69,7.048-14.615c3.618-0.619,6.649,0.708,7.888,4.436l-1.826,0.312 c-0.976-2.602-2.892-3.622-5.889-3.11c-4.239,0.725-6.669,4.37-5.423,12.068l0.17,1c0.672-2.917,3.279-4.89,6.176-5.385 c5.136-0.877,8.655,2.069,9.415,6.517c0.82,4.792-1.861,8.619-6.895,9.48C291.541,292.169,288.42,288.02,287.423,282.193z  M302.721,282.027c-0.653-3.827-3.334-6.03-7.436-5.329c-3.518,0.602-6.054,3.413-5.406,7.202c0.643,3.76,3.361,6.382,7.636,5.65 C301.341,288.897,303.377,285.854,302.721,282.027z"/>
		<path d="M123.678,232.962l-13.342,2.279l-0.271-1.585l15.753-2.693l0.053,0.31l-5.458,25.981l-1.965,0.336L123.678,232.962z"/>
		<path d="M194.634,237.509c-0.587-3.447,1.372-6.089,4.304-7.406c-2.64-0.292-4.819-1.837-5.296-4.63 c-0.654-3.826,2.457-6.806,6.179-7.441c3.758-0.642,7.622,1.216,8.253,4.904c0.489,2.861-0.998,4.96-3.378,6.183 c3.312,0.286,5.856,2.085,6.438,5.499c0.813,4.758-2.629,7.865-7.007,8.614C199.922,243.951,195.441,242.232,194.634,237.509z  M209.159,234.886c-0.607-3.551-3.73-5.004-7.144-4.422c-3.411,0.583-6.041,3.056-5.427,6.641 c0.635,3.722,3.815,5.095,7.263,4.506C207.505,240.985,209.801,238.642,209.159,234.886z M206.143,223.266 c-0.46-2.689-3.024-4.2-6.057-3.683c-3.034,0.518-5.002,2.7-4.515,5.56c0.524,3.069,3.491,4.23,6.214,3.765 C204.715,228.406,206.673,226.369,206.143,223.266z"/>
		<path d="M277.663,224.561l1.861-0.32c1.091,2.654,3.252,3.881,6.458,3.332c4.345-0.741,6.545-3.851,5.266-11.543l-0.224-1.309 c-0.688,2.814-3.378,4.728-6.311,5.229c-4.998,0.854-8.603-1.972-9.385-6.556c-0.819-4.792,1.902-8.592,6.934-9.451 c5.826-0.996,9.286,2.634,10.322,8.701l0.483,2.827c1.484,8.687-1.266,12.741-6.849,13.694 C282.187,229.854,279.005,228.27,277.663,224.561z M290.193,211.315c-0.653-3.827-3.396-6.586-7.671-5.856 c-3.861,0.66-5.895,3.703-5.241,7.53c0.655,3.827,3.342,6.063,7.411,5.369C288.242,217.751,290.819,214.969,290.193,211.315z"/>
		<path d="M143.199,435.521l-0.353-2.068c-1.231-7.204,1.536-12.182,7.398-13.184c5.859-1.001,10.205,2.833,11.407,9.863 l0.358,2.104c1.226,7.169-1.391,12.193-7.357,13.213C148.793,446.451,144.426,442.69,143.199,435.521z M160.039,432.537 l-0.354-2.069c-1.031-6.031-4.448-9.421-9.17-8.614c-4.689,0.801-6.794,4.886-5.709,11.229l0.358,2.104 c1.121,6.549,4.524,9.444,9.212,8.643C159.238,442.998,161.158,439.087,160.039,432.537z"/>
		<path d="M100.997,175.285l1.939-0.332l9.936,17.583l-1.468,0.25l-3.051-5.384l-8.436,1.443l-1.063,6.086l-1.389,0.238 L100.997,175.285z M100.135,187.594l7.597-1.298l-5.612-9.962L100.135,187.594z"/>
		<path d="M112.498,183.082l-0.036-0.21c-0.945-5.529,2.173-10.161,7.073-10.997c3.878-0.664,7.34,0.821,8.576,4.575l-1.468,0.25 c-1.09-2.915-3.421-4.243-6.88-3.651c-4.192,0.717-6.659,4.59-5.812,9.542l0.036,0.209c0.864,5.057,4.187,7.779,8.641,7.018 c3.381-0.578,5.486-2.771,5.539-6.097l1.362-0.233c0.008,4.151-2.681,6.876-6.716,7.567 C117.469,191.966,113.465,188.74,112.498,183.082z"/>
		<path d="M183.957,167.526l-5.109,0.873l-0.207-1.205l5.109-0.873l-0.936-5.477l1.257-0.215l0.938,5.476l5.109-0.872l0.207,1.206 l-5.11,0.872l0.936,5.477l-1.259,0.216L183.957,167.526z"/>
		<path d="M197.558,157.996l1.2,0.413l-8.222,23.979l-1.163-0.518L197.558,157.996z"/>
		<path d="M197.733,174.148l9.614-1.644l0.224,1.311l-9.614,1.642L197.733,174.148z"/>
		<path d="M266.415,153.185c-0.358-2.099,1.009-3.838,2.82-4.148c1.858-0.317,3.659,0.881,4.012,2.935 c0.363,2.141-1.017,3.794-2.81,4.101C268.67,156.374,266.773,155.28,266.415,153.185z M272.176,152.154 c-0.273-1.596-1.451-2.428-2.782-2.2c-1.312,0.224-2.173,1.361-1.886,3.042c0.279,1.64,1.463,2.382,2.774,2.158 C271.615,154.925,272.46,153.816,272.176,152.154z M279.336,146.833l0.938,0.44l-7.567,17.946l-0.938-0.411L279.336,146.833z  M278.809,160.15c-0.358-2.099,0.986-3.834,2.801-4.145c1.855-0.318,3.679,0.879,4.031,2.931c0.366,2.143-1.033,3.821-2.826,4.126 C281.044,163.366,279.166,162.247,278.809,160.15z M284.548,159.124c-0.273-1.594-1.424-2.41-2.779-2.179 c-1.31,0.224-2.173,1.361-1.889,3.022c0.281,1.638,1.486,2.377,2.773,2.156C283.987,161.897,284.832,160.785,284.548,159.124z"/>
		<path d="M317.008,416.968l1.072-4.6l1.316,0.355l-1.473,4.521L317.008,416.968z"/>
	</g>
	<g fill="#FFFFFF">
		<path d="M349.549,144.8l18.692-3.194l0.199,1.171l-18.692,3.195L349.549,144.8z"/>
		<path d="M388.634,329.121l-8.101,1.385l-0.271-1.584l8.101-1.384l-1.468-8.586l1.653-0.282l1.468,8.585l8.103-1.384 l0.271,1.583l-8.103,1.385l1.468,8.585l-1.653,0.283L388.634,329.121z"/>
		<path d="M369.138,267.052l19.616-3.354l0.295,1.725l-19.616,3.352L369.138,267.052z"/>
		<path d="M366.263,202.219l-6.707-4.749l0.93-1.312l6.706,4.748l5.031-7.108l1.372,0.97l-5.034,7.108l6.709,4.749 l-0.929,1.314l-6.709-4.751l-5.031,7.106l-1.372-0.97L366.263,202.219z"/>
		<path d="M391.012,389.655l19.441-3.321l0.271,1.585l-19.441,3.323L391.012,389.655z M392.23,396.792l19.441-3.323 l0.273,1.586l-19.444,3.322L392.23,396.792z"/>
		<circle cx="357.705" cy="137.738" r="1.504"/>
		<circle cx="359.768" cy="149.815" r="1.504"/>
	</g>
</svg>
